<svg id="Layer_1" xmlns="http://www.w3.org/2000/svg" viewBox="0 0 906.41 330.81"><polyline points="253.25 330.81 318.34 330.81 185.54 0 126.62 .3" stroke-width="0"/><polygon points="131.41 269.17 79.67 133.05 0 330.81 66.87 330.81 90.5 269.17 131.41 269.17" stroke-width="0"/><polygon points="402.16 330.81 402.16 0 340.47 0 340.47 172.71 402.16 330.81" stroke-width="0"/><path d="m431.96,201.05c-.45,4.78-.72,9.65-.72,14.66,0,22.61,4.71,42.98,14.13,61.13,7.23,13.93,16.6,25.59,28.09,35.02l-41.5-110.81Z" stroke-width="0"/><path d="m606.43,100.13v22.02c-6.25-6.73-13.61-12.33-22.13-16.76-12.88-6.69-27.48-10.03-43.8-10.03s-31.9,3.44-45.9,10.2l22.12,59.07c1.65-1.29,3.36-2.5,5.17-3.6,8.63-5.25,18.6-7.88,29.9-7.88s21.74,2.63,30.38,7.88c8.63,5.25,15.38,12.58,20.25,21.97,4.86,9.39,7.3,20.14,7.3,32.24,0,18.47-5.34,33.51-16.01,45.13-9.16,9.97-20.74,15.64-34.74,17.06l19.05,50.86c2.13-.91,4.23-1.88,6.27-2.97,8.52-4.53,15.88-10.17,22.13-16.87v22.36h61.22V100.13h-61.22Z" stroke-width="0"/><path d="m895.1,140.96c-7.54-13.53-17.9-24.51-31.08-32.95-13.18-8.43-28.1-12.66-44.74-12.66s-32.73,3.82-46.38,11.46c-7.4,4.14-13.89,9.18-19.54,15.05v-21.74h-61.19l61.19,163.38v-64.99c0-9.23,1.96-17.35,5.89-24.36,3.92-7,9.34-12.42,16.25-16.24,6.9-3.82,14.75-5.73,23.55-5.73,13.49,0,24.49,4.3,32.96,12.9,8.48,8.6,12.71,19.75,12.71,33.43v132.3h61.69v-146.15c0-15.6-3.77-30.16-11.3-43.7Z" stroke-width="0"/></svg>